# Blender v2.83.4 OBJ File: 'partivule.blend'
# www.blender.org
mtllib partivule.mtl
o Projectile_Cube
v 1.000000 1.000000 -1.000000
v 1.000000 -1.000000 -1.000000
v 1.000000 1.000000 1.000000
v 1.000000 -1.000000 1.000000
v -1.000000 1.000000 -1.000000
v -1.000000 -1.000000 -1.000000
v -1.000000 1.000000 1.000000
v -1.000000 -1.000000 1.000000
v -4.147140 0.000000 0.000000
v 4.072896 0.000000 0.000000
vt 0.318482 0.491065
vt 0.689747 0.491065
vt 0.689747 0.704120
vt 0.318482 0.704120
vt 0.318482 0.940957
vt 0.689747 0.940957
vt 0.689747 0.308805
vt 0.318482 0.308805
vt 0.318482 0.062613
vt 0.689747 0.062613
vt 1.004178 0.491065
vt 0.003123 0.491065
vn 0.0000 1.0000 0.0000
vn 0.0000 0.0000 1.0000
vn 0.0000 -1.0000 0.0000
vn 0.0000 0.0000 -1.0000
vn -0.3028 0.0000 0.9530
vn -0.3028 0.9530 0.0000
vn -0.3028 0.0000 -0.9530
vn -0.3028 -0.9530 0.0000
vn 0.3095 0.0000 -0.9509
vn 0.3095 0.9509 0.0000
vn 0.3095 0.0000 0.9509
vn 0.3095 -0.9509 0.0000
usemtl Material
s off
f 1/1/1 5/2/1 7/3/1 3/4/1
f 4/5/2 3/4/2 7/3/2 8/6/2
f 6/7/3 2/8/3 4/9/3 8/10/3
f 6/7/4 5/2/4 1/1/4 2/8/4
f 7/3/5 9/11/5 8/6/5
f 5/2/6 9/11/6 7/3/6
f 6/7/7 9/11/7 5/2/7
f 8/10/8 9/11/8 6/7/8
f 1/1/9 10/12/9 2/8/9
f 3/4/10 10/12/10 1/1/10
f 4/5/11 10/12/11 3/4/11
f 2/8/12 10/12/12 4/9/12
